<?xml version="1.0" standalone="no"?>
<!DOCTYPE svg PUBLIC "-//W3C//DTD SVG 20010904//EN"
 "http://www.w3.org/TR/2001/REC-SVG-20010904/DTD/svg10.dtd">
<svg version="1.0" xmlns="http://www.w3.org/2000/svg"
 width="3625.000000pt" height="1160.000000pt" viewBox="0 0 3625.000000 1160.000000"
 preserveAspectRatio="xMidYMid meet">

<g transform="translate(0.000000,1160.000000) scale(0.100000,-0.100000)"
fill="#fff" stroke="none">
<path d="M5482 11589 c-1172 -63 -2320 -489 -3232 -1199 -351 -273 -707 -623
-986 -970 -676 -838 -1099 -1857 -1219 -2930 -48 -439 -48 -941 1 -1370 74
-655 250 -1253 544 -1856 172 -353 351 -647 580 -949 718 -950 1651 -1625
2751 -1989 1335 -442 2755 -400 4066 120 527 208 1043 518 1498 899 116 97
395 353 395 362 0 3 -421 430 -936 949 l-936 943 -102 -92 c-469 -428 -1025
-689 -1681 -788 -170 -26 -525 -36 -701 -20 -879 81 -1647 494 -2175 1171
-365 467 -577 968 -655 1545 -24 180 -25 588 -1 770 79 592 288 1090 663 1575
108 139 352 387 489 495 436 347 947 565 1530 652 188 28 659 25 855 -5 661
-103 1235 -375 1696 -805 l81 -76 937 938 937 937 -108 105 c-547 527 -1203
944 -1901 1208 -787 298 -1581 424 -2390 380z"/>
<path d="M14172 11589 c-1172 -63 -2321 -490 -3232 -1199 -826 -643 -1463
-1486 -1837 -2430 -222 -559 -352 -1137 -392 -1744 -22 -330 -12 -775 25
-1096 141 -1228 677 -2380 1527 -3285 668 -711 1437 -1206 2347 -1508 1328
-442 2759 -401 4065 118 650 257 1243 643 1800 1168 l100 94 -939 946 -939
947 -69 -66 c-257 -242 -574 -450 -898 -588 -637 -271 -1350 -330 -2004 -165
-564 142 -1028 402 -1427 799 -359 358 -628 788 -782 1251 -194 580 -206 1254
-31 1846 233 795 779 1482 1487 1872 311 171 704 300 1092 358 188 28 659 25
855 -5 662 -103 1235 -375 1696 -805 l81 -76 937 938 937 937 -115 111 c-530
510 -1153 910 -1831 1178 -793 313 -1623 449 -2453 404z"/>
<path d="M30130 11580 c-391 -27 -719 -77 -1069 -165 -1332 -335 -2499 -1133
-3303 -2260 -322 -451 -602 -1003 -774 -1526 l-47 -146 183 -269 c100 -148
184 -271 186 -273 9 -10 16 12 48 145 165 668 483 1337 898 1887 298 394 674
769 1063 1061 702 526 1540 872 2410 995 277 39 385 46 745 46 360 0 468 -7
745 -46 1101 -155 2123 -657 2927 -1438 352 -341 677 -760 914 -1176 365 -642
585 -1345 666 -2125 17 -167 17 -793 0 -960 -71 -685 -233 -1258 -522 -1845
-266 -541 -573 -969 -1005 -1400 -341 -342 -663 -591 -1068 -829 -997 -584
-2153 -819 -3322 -675 -93 12 -173 23 -177 26 -20 11 4 -27 178 -282 l186
-273 86 -9 c133 -12 690 -9 847 5 787 72 1446 255 2115 589 257 128 432 228
641 368 1070 716 1882 1784 2278 2995 201 616 286 1155 285 1820 0 347 -12
527 -55 820 -335 2310 -2027 4191 -4288 4769 -288 74 -580 125 -901 156 -184
18 -693 27 -870 15z"/>
<path d="M18900 5681 l0 -5671 1410 0 1410 0 0 685 0 685 1813 0 1813 0 468
-685 468 -685 1403 0 1404 0 -53 78 c-29 42 -1524 2239 -3321 4882 -1797 2643
-3309 4864 -3358 4935 -412 592 -782 999 -1092 1201 -174 113 -338 180 -530
216 -104 19 -153 21 -972 25 l-863 5 0 -5671z m3742 -306 c503 -743 917 -1356
921 -1362 7 -10 -179 -13 -917 -13 l-926 0 0 1367 c0 751 2 1364 5 1362 2 -3
415 -612 917 -1354z"/>
<path d="M30166 10068 c-3 -18 -21 -130 -40 -248 -290 -1793 -1013 -3336
-2175 -4645 -207 -233 -641 -663 -835 -827 l-29 -25 223 -329 c122 -181 227
-333 231 -338 5 -6 43 1 96 18 858 268 1555 400 2357 447 260 15 948 6 1191
-15 916 -82 1810 -293 2675 -633 102 -40 170 -61 178 -56 7 4 77 120 156 257
l143 250 -162 130 c-519 418 -1045 937 -1449 1429 -546 667 -1013 1456 -1341
2267 -266 660 -474 1420 -580 2130 -14 96 -28 185 -31 198 l-4 22 -300 0 -299
0 -5 -32z m543 -3157 c439 -96 773 -436 867 -881 24 -115 24 -325 0 -440 -91
-428 -404 -760 -822 -870 -187 -49 -388 -47 -583 5 -376 101 -685 410 -786
786 -107 400 1 806 289 1095 186 185 426 299 691 328 75 8 258 -5 344 -23z"/>
<path d="M28515 9557 c-286 -77 -522 -141 -524 -143 -2 -2 -16 -81 -32 -176
-190 -1129 -720 -2088 -1559 -2824 -89 -77 -259 -218 -278 -229 -1 -1 41 -163
94 -361 l95 -359 87 -129 87 -128 53 58 c989 1091 1741 2314 2247 3659 83 221
257 743 253 759 -2 8 -172 -33 -523 -127z"/>
<path d="M31910 9666 c0 -14 172 -528 225 -671 477 -1295 1152 -2443 2054
-3495 149 -173 345 -385 356 -385 9 0 284 1003 284 1035 0 8 -35 42 -77 75
-199 155 -541 486 -710 687 -528 627 -876 1375 -1030 2213 -17 88 -33 184 -37
212 l-7 53 -51 15 c-114 32 -989 265 -998 265 -5 0 -9 -2 -9 -4z"/>
<path d="M30140 2939 c-555 -14 -1114 -72 -1690 -175 -107 -20 -210 -38 -227
-41 -18 -3 -33 -9 -33 -14 0 -8 459 -688 515 -764 l23 -31 217 72 c789 261
1545 319 2335 178 290 -52 660 -156 934 -264 l108 -42 384 383 c211 211 384
386 384 389 0 7 -33 14 -350 80 -853 177 -1701 251 -2600 229z"/>
</g>
</svg>
